<?xml version="1.0" standalone="no"?><!DOCTYPE svg PUBLIC "-//W3C//DTD SVG 1.1//EN" "http://www.w3.org/Graphics/SVG/1.1/DTD/svg11.dtd"><svg t="1543720738665" class="icon" style="" viewBox="0 0 1427 1024" version="1.1" xmlns="http://www.w3.org/2000/svg" p-id="2484" xmlns:xlink="http://www.w3.org/1999/xlink" width="278.7109375" height="200"><defs><style type="text/css"></style></defs><path d="M985.40660064 1022.833122c-14.910104 0-31.765004-4.278552-47.323373-12.057736l-222.225373-111.112687L492.20629664 1010.51608c-14.132185 7.519878-30.33882 11.539124-46.934413 11.539124-21.522411 0.129653-42.396556-6.74196-59.640416-19.577615-31.246391-23.467207-47.323373-64.178273-39.933147-101.1294l45.767536-237.26513L216.04524364 500.590529c-27.097493-27.486452-37.469739-67.289947-27.227146-104.370727l0.388959-1.166877c12.706002-38.247658 44.341352-64.956191 82.718663-70.142315L515.54385064 280.569258l109.297544-222.09572c17.503165-35.135984 53.287415-57.695619 91.01646-57.69562 39.414535 0 76.106356 23.467207 91.405419 58.343885l108.908584 221.447455 243.618131 42.655862c38.636617 5.575082 70.401621 33.320841 81.162826 70.920233 12.057736 36.951127 2.204102 77.402887-25.412003 104.759686l-0.648265 0.648266-174.772347 164.659407 44.211699 237.65409c7.130919 37.988351-8.038491 76.365662-39.414536 100.351481-16.8549 13.48392-37.858698 20.744492-59.510762 20.614839z m-269.548746-187.996961l248.026335 124.077994c7.260572 3.630286 15.688022 5.964042 21.392758 5.964042 8.816409 0 17.114206-2.722715 23.078248-7.779185l1.166877-0.907571c14.132185-10.631552 21.003798-27.356799 17.892125-43.82274l-49.916435-268.900481 197.461636-185.922512c12.057736-12.317042 16.206635-29.820208 10.890859-46.026842l-0.518613-1.68549c-4.408205-15.688022-17.632818-27.227146-33.709799-29.431249l-1.166878-0.129653L877.27593464 332.560142 754.36481764 82.848316c-5.964042-14.002532-22.170676-24.115472-38.506963-24.115472-16.076982 0-31.376045 10.11294-39.284883 25.541656L554.43977364 332.430489 279.83455764 382.346923c-16.725247 2.074449-29.690555 13.224614-35.654596 30.468473-4.278552 15.817675 0.777918 34.747025 12.446695 46.675108l197.591289 184.237022-51.861231 269.030134c-3.111674 15.558369 4.278552 33.450494 17.892125 43.693087 6.871613 5.186123 15.688022 7.908838 25.023044 7.908838 7.130919 0 14.002532-1.68549 19.966573-4.797164l0.907572-0.518612 249.711826-124.207648z m0 0" fill="" p-id="2485"></path></svg>