<?xml version="1.0" standalone="no"?><!DOCTYPE svg PUBLIC "-//W3C//DTD SVG 1.1//EN" "http://www.w3.org/Graphics/SVG/1.1/DTD/svg11.dtd"><svg t="1543720779100" class="icon" style="" viewBox="0 0 1024 1024" version="1.1" xmlns="http://www.w3.org/2000/svg" p-id="4008" xmlns:xlink="http://www.w3.org/1999/xlink" width="200" height="200"><defs><style type="text/css"></style></defs><path d="M839.424 102.4l-655.36 0C129.92 102.4 85.76 146.56 85.76 200.704l0 524.288c0 54.144 44.16 98.304 98.304 98.304l215.808 0 88.704 88.704c6.4 6.4 14.72 9.6 23.168 9.6 8.448 0 16.768-3.2 23.168-9.6l88.704-88.704 215.808 0c54.144 0 98.304-44.16 98.304-98.304L937.728 200.704C937.728 146.56 893.568 102.4 839.424 102.4zM872.192 724.992c0 18.048-14.72 32.768-32.768 32.768L610.048 757.76c-8.704 0-17.024 3.456-23.168 9.6l-75.136 75.136-75.136-75.136c-6.528-6.528-15.104-9.728-23.552-9.6 0 0 0 0-0.128 0L184.064 757.76c-18.048 0-32.768-14.72-32.768-32.768L151.296 200.704c0-18.048 14.72-32.768 32.768-32.768l655.36 0c18.048 0 32.768 14.72 32.768 32.768L872.192 724.992z" p-id="4009"></path><path d="M331.52 397.312c-27.136 0-49.152 22.016-49.152 49.152s22.016 49.152 49.152 49.152 49.152-22.016 49.152-49.152S358.656 397.312 331.52 397.312z" p-id="4010"></path><path d="M528.128 397.312c-27.136 0-49.152 22.016-49.152 49.152s22.016 49.152 49.152 49.152c27.136 0 49.152-22.016 49.152-49.152S555.264 397.312 528.128 397.312z" p-id="4011"></path><path d="M724.736 397.312c-27.136 0-49.152 22.016-49.152 49.152s22.016 49.152 49.152 49.152c27.136 0 49.152-22.016 49.152-49.152S751.872 397.312 724.736 397.312z" p-id="4012"></path></svg>