<?xml version="1.0" standalone="no"?><!DOCTYPE svg PUBLIC "-//W3C//DTD SVG 1.1//EN" "http://www.w3.org/Graphics/SVG/1.1/DTD/svg11.dtd"><svg t="1543736025152" class="icon" style="" viewBox="0 0 1024 1024" version="1.1" xmlns="http://www.w3.org/2000/svg" p-id="3231" xmlns:xlink="http://www.w3.org/1999/xlink" width="200" height="200"><defs><style type="text/css"></style></defs><path d="M1020.49792 487.07584c0.34816 4.56704 0 9.23648-1.24928 13.88544l-91.4432 392.94976c-1.26976 4.68992-3.39968 8.97024-6.06208 12.75904-9.74848 19.02592-24.6784 35.90144-44.42112 48.14848-20.84864 12.94336-44.17536 18.88256-67.13344 18.88256L810.1888 973.4144l-586.99776-0.26624c-2.048 0.34816-4.17792 0.512-6.28736 0.512-2.17088 0-4.21888-0.18432-6.28736-0.512L54.49728 973.14816c-2.23232 0.34816-4.42368 0.512-6.73792 0.512-23.40864 0-42.31168-18.432-42.31168-41.1648l0.4096-494.55104c0-22.7328 18.90304-41.20576 42.2912-41.20576 1.72032 0 3.42016 0.16384 5.16096 0.36864l140.34944-0.32768 0-0.75776c129.08544-9.03168 231.424-112.16896 235.1104-239.34976-0.32768-3.56352-0.59392-7.20896-0.59392-10.83392 0-66.21184 55.05024-119.86944 123.02336-119.86944 58.44992 0 107.2128 39.66976 119.78752 92.79488l0.65536-0.06144c6.88128 30.33088 10.6496 61.8496 10.6496 94.18752 0 49.90976-8.72448 97.792-24.71936 142.39744l236.05248 0.22528c2.17088 0 4.32128 0.2048 6.41024 0.53248 40.26368 1.55648 79.1552 21.74976 101.96992 57.63072C1016.54528 436.5312 1022.34112 462.19264 1020.49792 487.07584L1020.49792 487.07584zM90.07104 890.7776l84.54144 0 0.32768-411.56608-84.48 0.2048L90.07104 890.7776 90.07104 890.7776zM930.65216 456.78592c-8.192-12.8-22.54848-19.49696-36.90496-18.75968l0-0.1024c-0.06144 0-0.06144 0-0.12288 0l-298.3936-0.32768c-23.36768 0-42.2912-18.45248-42.2912-41.18528 0-6.5536 1.65888-12.73856 4.42368-18.2272l-0.45056-0.36864c16.91648-30.63808 29.22496-64.02048 36.1472-99.26656l0.53248 0c0 0 5.61152-22.24128 5.57056-64.90112-0.08192-33.792-6.36928-64.65536-6.36928-64.65536l-0.34816 0c0-0.59392 0.08192-1.20832 0.08192-1.80224 0-21.2992-17.63328-38.52288-39.54688-38.52288-21.8112 0-39.5264 17.24416-39.5264 38.52288 0 0.90112 0.06144 1.76128 0.12288 2.64192l-0.512 0c0 0 0.65536 32.1536-5.95968 65.51552-2.78528 14.15168-6.7584 27.36128-10.30144 37.7856-0.06144 0-0.14336-0.02048-0.2048-0.06144-35.61472 106.00448-125.1328 188.17024-236.97408 215.83872l-0.4096 421.84704 551.17824 0.26624c1.88416 0 3.64544 0.14336 5.4272 0.4096 5.57056-0.73728 10.99776-2.58048 15.95392-5.69344 7.14752-4.36224 12.24704-10.56768 15.2576-17.55136l0.12288 0 88.00256-378.24512-0.32768-0.1024C938.31168 479.1296 937.20576 467.0464 930.65216 456.78592L930.65216 456.78592z" p-id="3232"></path></svg>