<?xml version="1.0" standalone="no"?><!DOCTYPE svg PUBLIC "-//W3C//DTD SVG 1.1//EN" "http://www.w3.org/Graphics/SVG/1.1/DTD/svg11.dtd"><svg t="1543732932505" class="icon" style="" viewBox="0 0 1024 1024" version="1.1" xmlns="http://www.w3.org/2000/svg" p-id="18042" xmlns:xlink="http://www.w3.org/1999/xlink" width="200" height="200"><defs><style type="text/css"></style></defs><path d="M512 293.546667c-116.053333 0-215.04 98.986667-215.04 215.04s98.986667 215.04 215.04 215.04 215.04-98.986667 215.04-215.04-98.986667-215.04-215.04-215.04z m0 358.4c-78.506667 0-143.36-64.853333-143.36-143.36s64.853333-143.36 143.36-143.36c78.506667 0 139.946667 64.853333 139.946667 143.36s-61.44 143.36-139.946667 143.36z m0 0" fill="#999999" p-id="18043"></path><path d="M1017.173333 484.693333c-34.133333-64.853333-71.68-122.88-122.88-174.08C614.4 47.786667 157.013333 139.946667 3.413333 491.52c-3.413333 10.24-3.413333 27.306667 0 40.96 102.4 211.626667 276.48 317.44 508.586667 331.093333 232.106667-10.24 406.186667-116.053333 508.586667-327.68 3.413333-17.066667 3.413333-30.72-3.413334-51.2z m-75.093333 51.2c-92.16 163.84-238.933333 256-430.08 256s-334.506667-88.746667-433.493333-256c-10.24-13.653333-10.24-27.306667 0-47.786666 98.986667-167.253333 238.933333-252.586667 430.08-262.826667 194.56 10.24 341.333333 92.16 433.493333 256 10.24 23.893333 10.24 37.546667 0 54.613333z m0 0" fill="#999999" p-id="18044"></path><path d="M423.253333 467.626667c0 23.893333 20.48 40.96 40.96 40.96 23.893333 0 40.96-20.48 40.96-40.96 0-23.893333-20.48-40.96-40.96-40.96-20.48-3.413333-40.96 17.066667-40.96 40.96z m0 0" fill="#999999" p-id="18045"></path></svg>